<svg width="13" height="36" viewBox="0 0 13 36" fill="none" xmlns="http://www.w3.org/2000/svg">
<g id="icon">
<path id="Vector" d="M3.5 25.7698C2.09793 26.6555 1.16675 28.219 1.16675 30C1.16675 32.7614 3.40532 35 6.16675 35C8.92817 35 11.1667 32.7614 11.1667 30C11.1667 28.219 10.2356 26.6555 8.8335 25.7698M8.5 25.5V3.5C8.5 2.11929 7.38071 1 6 1C4.61929 1 3.5 2.11929 3.5 3.5V25.5" stroke="white" stroke-width="2"/>
<path id="Vector_2" d="M6.5 5H7.5M6.5 9H7.5M6.5 13H7.5M6.5 17H7.5M6.5 21H7.5M6.5 25H7.5" stroke="white" stroke-width="2" stroke-linecap="round"/>
</g>
</svg>
