<svg width="200" height="77" viewBox="0 0 215 77" fill="none" xmlns="http://www.w3.org/2000/svg">
<g id="Vector">
<path d="M33.331 73.6637V65.2637H34.099V73.6637H33.331ZM34.099 69.8597V69.1637H37.759V69.8597H34.099ZM34.099 65.9597V65.2637H38.167V65.9597H34.099Z" fill="white"/>
<path d="M39.6826 70.3757C39.6826 69.7277 39.8026 69.2037 40.0426 68.8037C40.2906 68.4037 40.6066 68.1117 40.9906 67.9277C41.3826 67.7357 41.7946 67.6397 42.2266 67.6397V68.2997C41.8746 68.2997 41.5346 68.3637 41.2066 68.4917C40.8866 68.6117 40.6226 68.8197 40.4146 69.1157C40.2066 69.4037 40.1026 69.7997 40.1026 70.3037L39.6826 70.3757ZM39.3826 73.6637V67.6637H40.1026V73.6637H39.3826Z" fill="white"/>
<path d="M45.8418 73.8077C45.2658 73.8077 44.7538 73.6757 44.3058 73.4117C43.8658 73.1397 43.5178 72.7677 43.2618 72.2957C43.0138 71.8237 42.8898 71.2797 42.8898 70.6637C42.8898 70.0477 43.0138 69.5037 43.2618 69.0317C43.5098 68.5597 43.8498 68.1917 44.2818 67.9277C44.7218 67.6557 45.2218 67.5197 45.7818 67.5197C46.3498 67.5197 46.8298 67.6597 47.2218 67.9397C47.6218 68.2117 47.9258 68.5917 48.1338 69.0797C48.3418 69.5597 48.4458 70.1157 48.4458 70.7477H47.7258C47.7258 70.2437 47.6538 69.7997 47.5098 69.4157C47.3658 69.0317 47.1498 68.7317 46.8618 68.5157C46.5738 68.2917 46.2138 68.1797 45.7818 68.1797C45.3578 68.1797 44.9818 68.2877 44.6538 68.5037C44.3258 68.7117 44.0698 69.0037 43.8858 69.3797C43.7018 69.7477 43.6098 70.1757 43.6098 70.6637C43.6098 71.1517 43.7058 71.5837 43.8978 71.9597C44.0898 72.3277 44.3538 72.6197 44.6898 72.8357C45.0258 73.0437 45.4098 73.1477 45.8418 73.1477C46.3058 73.1477 46.6978 73.0357 47.0178 72.8117C47.3458 72.5797 47.6018 72.2837 47.7858 71.9237L48.3858 72.2957C48.2338 72.5917 48.0338 72.8557 47.7858 73.0877C47.5458 73.3117 47.2618 73.4877 46.9338 73.6157C46.6058 73.7437 46.2418 73.8077 45.8418 73.8077ZM43.3818 70.7477V70.0877H47.9298V70.7477H43.3818Z" fill="white"/>
<path d="M52.3574 73.8077C51.7814 73.8077 51.2694 73.6757 50.8214 73.4117C50.3814 73.1397 50.0334 72.7677 49.7774 72.2957C49.5294 71.8237 49.4054 71.2797 49.4054 70.6637C49.4054 70.0477 49.5294 69.5037 49.7774 69.0317C50.0254 68.5597 50.3654 68.1917 50.7974 67.9277C51.2374 67.6557 51.7374 67.5197 52.2974 67.5197C52.8654 67.5197 53.3454 67.6597 53.7374 67.9397C54.1374 68.2117 54.4414 68.5917 54.6494 69.0797C54.8574 69.5597 54.9614 70.1157 54.9614 70.7477H54.2414C54.2414 70.2437 54.1694 69.7997 54.0254 69.4157C53.8814 69.0317 53.6654 68.7317 53.3774 68.5157C53.0894 68.2917 52.7294 68.1797 52.2974 68.1797C51.8734 68.1797 51.4974 68.2877 51.1694 68.5037C50.8414 68.7117 50.5854 69.0037 50.4014 69.3797C50.2174 69.7477 50.1254 70.1757 50.1254 70.6637C50.1254 71.1517 50.2214 71.5837 50.4134 71.9597C50.6054 72.3277 50.8694 72.6197 51.2054 72.8357C51.5414 73.0437 51.9254 73.1477 52.3574 73.1477C52.8214 73.1477 53.2134 73.0357 53.5334 72.8117C53.8614 72.5797 54.1174 72.2837 54.3014 71.9237L54.9014 72.2957C54.7494 72.5917 54.5494 72.8557 54.3014 73.0877C54.0614 73.3117 53.7774 73.4877 53.4494 73.6157C53.1214 73.7437 52.7574 73.8077 52.3574 73.8077ZM49.8974 70.7477V70.0877H54.4454V70.7477H49.8974Z" fill="white"/>
<path d="M59.581 73.6637V65.2637H60.349V73.6637H59.581ZM60.349 69.8597V69.1637H64.009V69.8597H60.349ZM60.349 65.9597V65.2637H64.417V65.9597H60.349Z" fill="white"/>
<path d="M65.7498 73.6637L65.7738 65.2637H66.4938L66.4698 73.6637H65.7498Z" fill="white"/>
<path d="M72.4688 73.6637L72.4208 72.5597V67.6637H73.1408V73.6637H72.4688ZM68.1128 71.0957V67.6637H68.8328V70.7357L68.1128 71.0957ZM68.8328 70.7357C68.8328 71.3997 68.9088 71.9037 69.0608 72.2477C69.2208 72.5917 69.4368 72.8277 69.7088 72.9557C69.9808 73.0757 70.2808 73.1357 70.6088 73.1357C71.1768 73.1357 71.6208 72.9277 71.9408 72.5117C72.2608 72.0877 72.4208 71.4997 72.4208 70.7477H72.8648C72.8648 71.3877 72.7728 71.9357 72.5888 72.3917C72.4128 72.8477 72.1488 73.1997 71.7968 73.4477C71.4448 73.6877 71.0088 73.8077 70.4888 73.8077C69.7688 73.8077 69.1888 73.5837 68.7488 73.1357C68.3168 72.6877 68.1048 72.0077 68.1128 71.0957L68.8328 70.7357Z" fill="white"/>
<path d="M77.2293 73.8077C76.6773 73.8077 76.2453 73.6637 75.9333 73.3757C75.6213 73.0797 75.4653 72.6637 75.4653 72.1277V65.7917H76.1853V72.1277C76.1853 72.4477 76.2773 72.6997 76.4613 72.8837C76.6453 73.0597 76.9013 73.1477 77.2293 73.1477C77.3253 73.1477 77.4173 73.1357 77.5053 73.1117C77.6013 73.0797 77.7373 73.0037 77.9133 72.8837L78.2133 73.5077C77.9973 73.6357 77.8173 73.7157 77.6733 73.7477C77.5293 73.7877 77.3813 73.8077 77.2293 73.8077ZM74.3973 68.3237V67.6637H78.0933V68.3237H74.3973Z" fill="white"/>
<path d="M81.7527 73.8077C81.2007 73.8077 80.7687 73.6637 80.4567 73.3757C80.1447 73.0797 79.9887 72.6637 79.9887 72.1277V65.7917H80.7087V72.1277C80.7087 72.4477 80.8007 72.6997 80.9847 72.8837C81.1687 73.0597 81.4247 73.1477 81.7527 73.1477C81.8487 73.1477 81.9407 73.1357 82.0287 73.1117C82.1247 73.0797 82.2607 73.0037 82.4367 72.8837L82.7367 73.5077C82.5207 73.6357 82.3407 73.7157 82.1967 73.7477C82.0527 73.7877 81.9047 73.8077 81.7527 73.8077ZM78.9207 68.3237V67.6637H82.6167V68.3237H78.9207Z" fill="white"/>
<path d="M86.5762 73.8077C86.0002 73.8077 85.4882 73.6757 85.0402 73.4117C84.6002 73.1397 84.2522 72.7677 83.9962 72.2957C83.7482 71.8237 83.6242 71.2797 83.6242 70.6637C83.6242 70.0477 83.7482 69.5037 83.9962 69.0317C84.2442 68.5597 84.5842 68.1917 85.0162 67.9277C85.4562 67.6557 85.9562 67.5197 86.5162 67.5197C87.0842 67.5197 87.5642 67.6597 87.9562 67.9397C88.3562 68.2117 88.6602 68.5917 88.8682 69.0797C89.0762 69.5597 89.1802 70.1157 89.1802 70.7477H88.4602C88.4602 70.2437 88.3882 69.7997 88.2442 69.4157C88.1002 69.0317 87.8842 68.7317 87.5962 68.5157C87.3082 68.2917 86.9482 68.1797 86.5162 68.1797C86.0922 68.1797 85.7162 68.2877 85.3882 68.5037C85.0602 68.7117 84.8042 69.0037 84.6202 69.3797C84.4362 69.7477 84.3442 70.1757 84.3442 70.6637C84.3442 71.1517 84.4402 71.5837 84.6322 71.9597C84.8242 72.3277 85.0882 72.6197 85.4242 72.8357C85.7602 73.0437 86.1442 73.1477 86.5762 73.1477C87.0402 73.1477 87.4322 73.0357 87.7522 72.8117C88.0802 72.5797 88.3362 72.2837 88.5202 71.9237L89.1202 72.2957C88.9682 72.5917 88.7682 72.8557 88.5202 73.0877C88.2802 73.3117 87.9962 73.4877 87.6682 73.6157C87.3402 73.7437 86.9762 73.8077 86.5762 73.8077ZM84.1162 70.7477V70.0877H88.6642V70.7477H84.1162Z" fill="white"/>
<path d="M90.7998 70.3757C90.7998 69.7277 90.9198 69.2037 91.1598 68.8037C91.4078 68.4037 91.7238 68.1117 92.1078 67.9277C92.4998 67.7357 92.9118 67.6397 93.3438 67.6397V68.2997C92.9918 68.2997 92.6518 68.3637 92.3238 68.4917C92.0038 68.6117 91.7398 68.8197 91.5318 69.1157C91.3238 69.4037 91.2198 69.7997 91.2198 70.3037L90.7998 70.3757ZM90.4998 73.6637V67.6637H91.2198V73.6637H90.4998Z" fill="white"/>
<path d="M101.159 73.6637L101.039 70.4477C101.023 69.9357 100.955 69.5157 100.835 69.1877C100.723 68.8517 100.547 68.5997 100.307 68.4317C100.075 68.2637 99.763 68.1797 99.371 68.1797C98.987 68.1797 98.655 68.2557 98.375 68.4077C98.103 68.5597 97.883 68.7877 97.715 69.0917L97.067 68.8037C97.243 68.5157 97.443 68.2757 97.667 68.0837C97.899 67.8917 98.155 67.7517 98.435 67.6637C98.723 67.5677 99.035 67.5197 99.371 67.5197C99.907 67.5197 100.351 67.6277 100.703 67.8437C101.055 68.0597 101.319 68.3837 101.495 68.8157C101.671 69.2477 101.759 69.7917 101.759 70.4477V73.6637H101.159ZM99.251 73.8077C98.547 73.8077 97.995 73.6477 97.595 73.3277C97.203 72.9997 97.007 72.5477 97.007 71.9717C97.007 71.3797 97.203 70.9197 97.595 70.5917C97.995 70.2637 98.547 70.0997 99.251 70.0997H101.507V70.7597H99.347C98.771 70.7597 98.355 70.8677 98.099 71.0837C97.851 71.2917 97.727 71.5877 97.727 71.9717C97.727 72.3397 97.855 72.6277 98.111 72.8357C98.375 73.0437 98.739 73.1477 99.203 73.1477C99.595 73.1477 99.927 73.0637 100.199 72.8957C100.479 72.7197 100.691 72.4797 100.835 72.1757C100.987 71.8637 101.063 71.5037 101.063 71.0957H101.711C101.711 71.9117 101.495 72.5677 101.063 73.0637C100.631 73.5597 100.027 73.8077 99.251 73.8077Z" fill="white"/>
<path d="M103.439 76.0637V67.6637H104.111L104.159 68.7677V76.0637H103.439ZM106.271 73.8077C105.767 73.8077 105.319 73.6757 104.927 73.4117C104.535 73.1397 104.227 72.7677 104.003 72.2957C103.787 71.8157 103.679 71.2717 103.679 70.6637C103.679 70.0477 103.787 69.5037 104.003 69.0317C104.227 68.5597 104.535 68.1917 104.927 67.9277C105.319 67.6557 105.767 67.5197 106.271 67.5197C106.799 67.5197 107.267 67.6557 107.675 67.9277C108.083 68.1917 108.403 68.5597 108.635 69.0317C108.867 69.5037 108.983 70.0477 108.983 70.6637C108.983 71.2717 108.867 71.8157 108.635 72.2957C108.403 72.7677 108.083 73.1397 107.675 73.4117C107.267 73.6757 106.799 73.8077 106.271 73.8077ZM106.127 73.1597C106.543 73.1597 106.911 73.0557 107.231 72.8477C107.551 72.6317 107.803 72.3357 107.987 71.9597C108.171 71.5837 108.263 71.1517 108.263 70.6637C108.263 70.1757 108.171 69.7437 107.987 69.3677C107.811 68.9917 107.563 68.6997 107.243 68.4917C106.923 68.2757 106.555 68.1677 106.139 68.1677C105.755 68.1677 105.411 68.2757 105.107 68.4917C104.811 68.6997 104.579 68.9917 104.411 69.3677C104.243 69.7437 104.159 70.1757 104.159 70.6637C104.159 71.1517 104.243 71.5837 104.411 71.9597C104.579 72.3357 104.811 72.6317 105.107 72.8477C105.403 73.0557 105.743 73.1597 106.127 73.1597Z" fill="white"/>
<path d="M110.482 76.0637V67.6637H111.154L111.202 68.7677V76.0637H110.482ZM113.314 73.8077C112.81 73.8077 112.362 73.6757 111.97 73.4117C111.578 73.1397 111.27 72.7677 111.046 72.2957C110.83 71.8157 110.722 71.2717 110.722 70.6637C110.722 70.0477 110.83 69.5037 111.046 69.0317C111.27 68.5597 111.578 68.1917 111.97 67.9277C112.362 67.6557 112.81 67.5197 113.314 67.5197C113.842 67.5197 114.31 67.6557 114.718 67.9277C115.126 68.1917 115.446 68.5597 115.678 69.0317C115.91 69.5037 116.026 70.0477 116.026 70.6637C116.026 71.2717 115.91 71.8157 115.678 72.2957C115.446 72.7677 115.126 73.1397 114.718 73.4117C114.31 73.6757 113.842 73.8077 113.314 73.8077ZM113.17 73.1597C113.586 73.1597 113.954 73.0557 114.274 72.8477C114.594 72.6317 114.846 72.3357 115.03 71.9597C115.214 71.5837 115.306 71.1517 115.306 70.6637C115.306 70.1757 115.214 69.7437 115.03 69.3677C114.854 68.9917 114.606 68.6997 114.286 68.4917C113.966 68.2757 113.598 68.1677 113.182 68.1677C112.798 68.1677 112.454 68.2757 112.15 68.4917C111.854 68.6997 111.622 68.9917 111.454 69.3677C111.286 69.7437 111.202 70.1757 111.202 70.6637C111.202 71.1517 111.286 71.5837 111.454 71.9597C111.622 72.3357 111.854 72.6317 112.15 72.8477C112.446 73.0557 112.786 73.1597 113.17 73.1597Z" fill="white"/>
<path d="M123.789 73.8557C123.181 73.8557 122.637 73.7237 122.157 73.4597C121.685 73.1877 121.313 72.8157 121.041 72.3437C120.777 71.8717 120.645 71.3317 120.645 70.7237H121.413C121.413 71.1957 121.513 71.6157 121.713 71.9837C121.921 72.3517 122.205 72.6397 122.565 72.8477C122.933 73.0557 123.349 73.1597 123.813 73.1597C124.285 73.1597 124.701 73.0557 125.061 72.8477C125.429 72.6397 125.713 72.3517 125.913 71.9837C126.121 71.6157 126.225 71.1957 126.225 70.7237H126.993C126.993 71.3317 126.857 71.8717 126.585 72.3437C126.313 72.8157 125.933 73.1877 125.445 73.4597C124.965 73.7237 124.413 73.8557 123.789 73.8557ZM120.645 70.7237V65.2637H121.413V70.7237H120.645ZM126.225 70.7237V65.2637H126.993V70.7237H126.225Z" fill="white"/>
<path d="M129.272 73.6637V65.2637H130.04V73.6637H129.272Z" fill="white"/>
<path d="M137.429 73.8077C136.877 73.8077 136.445 73.6637 136.133 73.3757C135.821 73.0797 135.665 72.6637 135.665 72.1277V65.7917H136.385V72.1277C136.385 72.4477 136.477 72.6997 136.661 72.8837C136.845 73.0597 137.101 73.1477 137.429 73.1477C137.525 73.1477 137.617 73.1357 137.705 73.1117C137.801 73.0797 137.937 73.0037 138.113 72.8837L138.413 73.5077C138.197 73.6357 138.017 73.7157 137.873 73.7477C137.729 73.7877 137.581 73.8077 137.429 73.8077ZM134.597 68.3237V67.6637H138.293V68.3237H134.597Z" fill="white"/>
<path d="M142.252 73.8077C141.676 73.8077 141.164 73.6757 140.716 73.4117C140.276 73.1397 139.928 72.7677 139.672 72.2957C139.424 71.8237 139.3 71.2797 139.3 70.6637C139.3 70.0477 139.424 69.5037 139.672 69.0317C139.92 68.5597 140.26 68.1917 140.692 67.9277C141.132 67.6557 141.632 67.5197 142.192 67.5197C142.76 67.5197 143.24 67.6597 143.632 67.9397C144.032 68.2117 144.336 68.5917 144.544 69.0797C144.752 69.5597 144.856 70.1157 144.856 70.7477H144.136C144.136 70.2437 144.064 69.7997 143.92 69.4157C143.776 69.0317 143.56 68.7317 143.272 68.5157C142.984 68.2917 142.624 68.1797 142.192 68.1797C141.768 68.1797 141.392 68.2877 141.064 68.5037C140.736 68.7117 140.48 69.0037 140.296 69.3797C140.112 69.7477 140.02 70.1757 140.02 70.6637C140.02 71.1517 140.116 71.5837 140.308 71.9597C140.5 72.3277 140.764 72.6197 141.1 72.8357C141.436 73.0437 141.82 73.1477 142.252 73.1477C142.716 73.1477 143.108 73.0357 143.428 72.8117C143.756 72.5797 144.012 72.2837 144.196 71.9237L144.796 72.2957C144.644 72.5917 144.444 72.8557 144.196 73.0877C143.956 73.3117 143.672 73.4877 143.344 73.6157C143.016 73.7437 142.652 73.8077 142.252 73.8077ZM139.792 70.7477V70.0877H144.34V70.7477H139.792Z" fill="white"/>
<path d="M146.176 73.6637V67.6637H146.848L146.896 68.7677V73.6637H146.176ZM150.484 73.6637V70.5917L151.204 70.2317V73.6637H150.484ZM154.792 73.6637V70.5917L155.512 70.2317V73.6637H154.792ZM150.484 70.5917C150.484 69.9277 150.404 69.4237 150.244 69.0797C150.092 68.7357 149.88 68.5037 149.608 68.3837C149.344 68.2557 149.044 68.1917 148.708 68.1917C148.14 68.1917 147.696 68.4037 147.376 68.8277C147.056 69.2437 146.896 69.8277 146.896 70.5797H146.452C146.452 69.9397 146.54 69.3917 146.716 68.9357C146.9 68.4797 147.168 68.1317 147.52 67.8917C147.88 67.6437 148.316 67.5197 148.828 67.5197C149.548 67.5197 150.124 67.7437 150.556 68.1917C150.996 68.6397 151.212 69.3197 151.204 70.2317L150.484 70.5917ZM154.792 70.5917C154.792 69.9277 154.712 69.4237 154.552 69.0797C154.4 68.7357 154.188 68.5037 153.916 68.3837C153.652 68.2557 153.352 68.1917 153.016 68.1917C152.448 68.1917 152.004 68.4037 151.684 68.8277C151.364 69.2437 151.204 69.8277 151.204 70.5797H150.76C150.76 69.9397 150.848 69.3917 151.024 68.9357C151.208 68.4797 151.476 68.1317 151.828 67.8917C152.188 67.6437 152.624 67.5197 153.136 67.5197C153.856 67.5197 154.432 67.7437 154.864 68.1917C155.304 68.6397 155.52 69.3197 155.512 70.2317L154.792 70.5917Z" fill="white"/>
<path d="M157.193 76.0637V67.6637H157.865L157.913 68.7677V76.0637H157.193ZM160.025 73.8077C159.521 73.8077 159.073 73.6757 158.681 73.4117C158.289 73.1397 157.981 72.7677 157.757 72.2957C157.541 71.8157 157.433 71.2717 157.433 70.6637C157.433 70.0477 157.541 69.5037 157.757 69.0317C157.981 68.5597 158.289 68.1917 158.681 67.9277C159.073 67.6557 159.521 67.5197 160.025 67.5197C160.553 67.5197 161.021 67.6557 161.429 67.9277C161.837 68.1917 162.157 68.5597 162.389 69.0317C162.621 69.5037 162.737 70.0477 162.737 70.6637C162.737 71.2717 162.621 71.8157 162.389 72.2957C162.157 72.7677 161.837 73.1397 161.429 73.4117C161.021 73.6757 160.553 73.8077 160.025 73.8077ZM159.881 73.1597C160.297 73.1597 160.665 73.0557 160.985 72.8477C161.305 72.6317 161.557 72.3357 161.741 71.9597C161.925 71.5837 162.017 71.1517 162.017 70.6637C162.017 70.1757 161.925 69.7437 161.741 69.3677C161.565 68.9917 161.317 68.6997 160.997 68.4917C160.677 68.2757 160.309 68.1677 159.893 68.1677C159.509 68.1677 159.165 68.2757 158.861 68.4917C158.565 68.6997 158.333 68.9917 158.165 69.3677C157.997 69.7437 157.913 70.1757 157.913 70.6637C157.913 71.1517 157.997 71.5837 158.165 71.9597C158.333 72.3357 158.565 72.6317 158.861 72.8477C159.157 73.0557 159.497 73.1597 159.881 73.1597Z" fill="white"/>
<path d="M164.176 73.6637L164.2 65.2637H164.92L164.896 73.6637H164.176Z" fill="white"/>
<path d="M170.511 73.6637L170.391 70.4477C170.375 69.9357 170.307 69.5157 170.187 69.1877C170.075 68.8517 169.899 68.5997 169.659 68.4317C169.427 68.2637 169.115 68.1797 168.723 68.1797C168.339 68.1797 168.007 68.2557 167.727 68.4077C167.455 68.5597 167.235 68.7877 167.067 69.0917L166.419 68.8037C166.595 68.5157 166.795 68.2757 167.019 68.0837C167.251 67.8917 167.507 67.7517 167.787 67.6637C168.075 67.5677 168.387 67.5197 168.723 67.5197C169.259 67.5197 169.703 67.6277 170.055 67.8437C170.407 68.0597 170.671 68.3837 170.847 68.8157C171.023 69.2477 171.111 69.7917 171.111 70.4477V73.6637H170.511ZM168.603 73.8077C167.899 73.8077 167.347 73.6477 166.947 73.3277C166.555 72.9997 166.359 72.5477 166.359 71.9717C166.359 71.3797 166.555 70.9197 166.947 70.5917C167.347 70.2637 167.899 70.0997 168.603 70.0997H170.859V70.7597H168.699C168.123 70.7597 167.707 70.8677 167.451 71.0837C167.203 71.2917 167.079 71.5877 167.079 71.9717C167.079 72.3397 167.207 72.6277 167.463 72.8357C167.727 73.0437 168.091 73.1477 168.555 73.1477C168.947 73.1477 169.279 73.0637 169.551 72.8957C169.831 72.7197 170.043 72.4797 170.187 72.1757C170.339 71.8637 170.415 71.5037 170.415 71.0957H171.063C171.063 71.9117 170.847 72.5677 170.415 73.0637C169.983 73.5597 169.379 73.8077 168.603 73.8077Z" fill="white"/>
<path d="M175.022 73.8077C174.47 73.8077 174.038 73.6637 173.726 73.3757C173.414 73.0797 173.258 72.6637 173.258 72.1277V65.7917H173.978V72.1277C173.978 72.4477 174.07 72.6997 174.254 72.8837C174.438 73.0597 174.694 73.1477 175.022 73.1477C175.118 73.1477 175.21 73.1357 175.298 73.1117C175.394 73.0797 175.53 73.0037 175.706 72.8837L176.006 73.5077C175.79 73.6357 175.61 73.7157 175.466 73.7477C175.322 73.7877 175.174 73.8077 175.022 73.8077ZM172.19 68.3237V67.6637H175.886V68.3237H172.19Z" fill="white"/>
<path d="M179.846 73.8077C179.27 73.8077 178.758 73.6757 178.31 73.4117C177.87 73.1397 177.522 72.7677 177.266 72.2957C177.018 71.8237 176.894 71.2797 176.894 70.6637C176.894 70.0477 177.018 69.5037 177.266 69.0317C177.514 68.5597 177.854 68.1917 178.286 67.9277C178.726 67.6557 179.226 67.5197 179.786 67.5197C180.354 67.5197 180.834 67.6597 181.226 67.9397C181.626 68.2117 181.93 68.5917 182.138 69.0797C182.346 69.5597 182.45 70.1157 182.45 70.7477H181.73C181.73 70.2437 181.658 69.7997 181.514 69.4157C181.37 69.0317 181.154 68.7317 180.866 68.5157C180.578 68.2917 180.218 68.1797 179.786 68.1797C179.362 68.1797 178.986 68.2877 178.658 68.5037C178.33 68.7117 178.074 69.0037 177.89 69.3797C177.706 69.7477 177.614 70.1757 177.614 70.6637C177.614 71.1517 177.71 71.5837 177.902 71.9597C178.094 72.3277 178.358 72.6197 178.694 72.8357C179.03 73.0437 179.414 73.1477 179.846 73.1477C180.31 73.1477 180.702 73.0357 181.022 72.8117C181.35 72.5797 181.606 72.2837 181.79 71.9237L182.39 72.2957C182.238 72.5917 182.038 72.8557 181.79 73.0877C181.55 73.3117 181.266 73.4877 180.938 73.6157C180.61 73.7437 180.246 73.8077 179.846 73.8077ZM177.386 70.7477V70.0877H181.934V70.7477H177.386Z" fill="white"/>
<path fill-rule="evenodd" clip-rule="evenodd" d="M55.9406 46.6121C52.5678 46.6121 49.5747 45.9174 46.9606 44.5279C44.3891 43.0964 42.3654 41.1385 40.8898 38.6542C39.4143 36.17 38.6765 33.3068 38.6765 30.0648C38.6765 26.8227 39.3933 23.9595 40.8266 21.4753C42.3022 18.991 44.3259 17.0543 46.8974 15.6647C49.5114 14.2332 52.4836 13.5174 55.8142 13.5174C59.1867 13.5174 62.1589 14.2332 64.7307 15.6647C67.3444 17.0543 69.3681 18.991 70.8015 21.4753C72.277 23.9595 73.0148 26.8227 73.0148 30.0648C73.0148 33.3068 72.277 36.17 70.8015 38.6542C69.3681 41.1385 67.3657 43.0964 64.7939 44.5279C62.2221 45.9174 59.2712 46.6121 55.9406 46.6121ZM60.903 27.4029C60.9367 27.4619 60.9694 27.5214 61.0009 27.5816C61.1845 27.0565 61.1629 26.5975 60.9361 26.2047C60.6709 25.7453 60.1869 25.4837 59.4842 25.4199C59.4196 25.4132 59.4099 25.303 59.4739 25.2921C60.1261 25.1801 60.7107 25.1532 61.2278 25.2113C62.1288 25.3 62.7513 25.6423 63.0954 26.2382C63.4394 26.8341 63.4246 27.5444 63.0509 28.369C62.6955 29.1831 62.0384 30.0423 61.0795 30.9468C60.1162 31.8435 58.9153 32.7071 57.4768 33.5376C56.02 34.3787 54.6535 34.9974 53.377 35.3938C52.1143 35.772 51.0325 35.9167 50.1315 35.828C49.2306 35.7394 48.608 35.3971 48.264 34.8011C47.9199 34.2052 47.9257 33.5001 48.2811 32.6861C48.4992 32.2048 48.8177 31.7112 49.2367 31.2054C49.2776 31.156 49.3664 31.2188 49.3395 31.277C49.0576 31.9091 49.0493 32.455 49.3146 32.9144C49.54 33.3048 49.9233 33.5524 50.4644 33.6571L50.45 33.6319C49.9343 32.7311 49.6765 31.693 49.6765 30.5174C49.6765 29.3418 49.927 28.3037 50.4279 27.4029C50.9435 26.5021 51.6507 25.7999 52.5494 25.296C53.4629 24.777 54.5015 24.5174 55.6655 24.5174C56.844 24.5174 57.8827 24.777 58.7814 25.296C59.6949 25.7999 60.4021 26.5021 60.903 27.4029ZM53.9885 36.3156C54.5268 36.4501 55.1005 36.5174 55.7096 36.5174C56.8736 36.5174 57.9048 36.2655 58.8035 35.7617C59.7023 35.2426 60.4021 34.5327 60.903 33.6319C61.3289 32.8879 61.5789 32.05 61.653 31.1185C61.4556 31.3601 61.2432 31.594 61.0187 31.8094C60.1311 32.65 59.0247 33.4595 57.6992 34.2381C57.421 34.4015 57.004 34.5891 56.5455 34.7954C55.5688 35.2349 54.4035 35.7593 53.9885 36.3156Z" fill="white"/>
<path d="M119.461 15.1806H108.711V46.7595H120.093V29.9595C120.093 28.2332 120.494 26.97 121.295 26.17C122.096 25.3701 123.298 25.0122 124.9 25.0964C125.701 25.1385 126.354 25.3701 126.86 25.7911C127.408 26.2121 127.809 26.8227 128.061 27.6226C128.357 28.3806 128.504 29.3701 128.504 30.5911V46.7595H139.887V29.9595C139.887 28.2332 140.288 26.97 141.089 26.17C141.89 25.3701 143.091 25.0122 144.693 25.0964C145.494 25.1385 146.148 25.3701 146.654 25.7911C147.202 26.2121 147.602 26.8227 147.855 27.6226C148.15 28.3806 148.298 29.3701 148.298 30.5911V46.7595H159.681V28.6964C159.681 23.8121 158.753 20.2121 156.898 17.8963C155.043 15.5805 152.176 14.4227 148.298 14.4227C146.105 14.4227 144.145 15.0332 142.416 16.2542C140.89 17.2952 139.643 18.7794 138.676 20.7067C138.259 19.6212 137.736 18.6844 137.104 17.8963C135.249 15.5805 132.383 14.4227 128.504 14.4227C126.312 14.4227 124.352 15.0332 122.623 16.2542C121.837 16.7904 120.845 17.899 119.905 19.2642L119.461 15.1806Z" fill="white"/>
<path d="M170 12.6316C168.314 12.6316 166.838 12 165.573 10.7368C164.309 9.47363 163.676 8 163.676 6.3158C163.676 4.58948 164.309 3.11584 165.573 1.89478C166.838 0.631592 168.314 0 170 0C171.729 0 173.204 0.631592 174.427 1.89478C175.692 3.11584 176.324 4.58948 176.324 6.3158C176.324 8 175.692 9.47363 174.427 10.7368C173.204 12 171.729 12.6316 170 12.6316Z" fill="white"/>
<path d="M164.309 46.7595V16.6434C164.309 15.8801 164.998 15.3017 165.749 15.4337C168.562 15.9279 171.439 15.9279 174.251 15.4337C175.003 15.3017 175.692 15.8801 175.692 16.6434V46.7595H164.309Z" fill="white"/>
<path d="M90.0976 47.5174C87.9897 47.5174 86.0293 47.2226 84.2165 46.6331C82.4035 46.0438 80.8437 45.2227 79.5368 44.17C78.2722 43.0753 77.3867 41.7701 76.8808 40.2542L85.9238 36.7174C86.3877 37.8542 87.0412 38.5911 87.8843 38.9279C88.7275 39.2227 89.4653 39.3701 90.0976 39.3701C90.7722 39.3701 91.3203 39.2227 91.7419 38.9279C92.1633 38.6332 92.3742 38.2121 92.3742 37.6647C92.3742 37.0753 92.0791 36.5911 91.4887 36.2121C90.8987 35.7911 89.9922 35.4332 88.7695 35.1385L86.1767 34.5069C83.3523 33.7911 81.2231 32.549 79.7898 30.7806C78.3564 29.0122 77.6396 26.9489 77.6396 24.5911C77.6396 21.3489 78.82 18.8437 81.1811 17.0753C83.5842 15.3068 86.8303 14.4227 90.9197 14.4227C93.4072 14.4227 95.4939 14.7385 97.1804 15.3701C98.9089 15.9595 100.321 16.8016 101.417 17.8963C102.513 18.991 103.357 20.2542 103.947 21.6859L95.1567 25.0332C94.8615 24.1911 94.3557 23.5805 93.6389 23.2016C92.9643 22.8227 92.1213 22.6332 91.1094 22.6332C90.3928 22.6332 89.8237 22.8016 89.4021 23.1385C89.0227 23.4753 88.833 23.8753 88.833 24.3384C88.833 24.8437 89.1279 25.2858 89.7182 25.6647C90.3506 26.0017 91.299 26.3384 92.5639 26.6752L95.1567 27.3068C97.0959 27.7701 98.7824 28.4858 100.216 29.4543C101.649 30.3806 102.766 31.5384 103.567 32.9279C104.368 34.3175 104.769 35.9174 104.769 37.728C104.769 39.7911 104.157 41.5595 102.935 43.0331C101.712 44.4648 100.005 45.5805 97.8127 46.3806C95.6203 47.1385 93.0488 47.5174 90.0976 47.5174Z" fill="white"/>
<path fill-rule="evenodd" clip-rule="evenodd" d="M17.5953 14.4228C17.6235 14.4227 17.6518 14.4227 17.6802 14.4227C21.0527 14.4227 24.0249 15.1385 26.5967 16.57C29.2104 17.9595 31.2341 19.8963 32.6675 22.3806C33.8783 24.419 34.5923 26.7125 34.8096 29.2612C34.8214 29.3995 34.7116 29.5174 34.5727 29.5174C34.454 29.5174 34.3534 29.4302 34.3347 29.313C34.0233 27.3625 33.3621 25.5821 32.3509 23.9716C31.5579 22.6713 30.5823 21.5311 29.4242 20.551L21.8812 26.6797C22.2365 27.0415 22.5399 27.4552 22.7915 27.9209C23.2867 28.8255 23.5343 29.854 23.5343 31.0065C23.5343 32.1736 23.2867 33.2021 22.7915 34.092C22.5385 34.568 22.2331 34.9874 21.8752 35.3503L30.7748 42.5812C29.5722 44.0591 28.1148 45.2925 26.4025 46.2814C23.8561 47.709 20.9343 48.4227 17.6365 48.4227C14.2969 48.4227 11.3333 47.709 8.74503 46.2814C6.19883 44.8108 4.19509 42.7993 2.73405 40.2471C1.273 37.6949 0.54248 34.7534 0.54248 31.4227C0.54248 31.3453 0.542864 31.2681 0.54363 31.1911C0.542863 31.1176 0.54248 31.0439 0.54248 30.97C0.54248 27.728 1.25928 24.8648 2.69263 22.3806C4.16821 19.8963 6.19189 17.9595 8.76343 16.57C9.1459 16.3606 9.53604 16.1664 9.93385 15.9876C12.208 14.9444 14.7338 14.4227 17.5113 14.4227C17.5393 14.4227 17.5673 14.4227 17.5953 14.4228ZM13.4887 28.45C13.0864 29.2053 12.8853 30.0702 12.8853 31.0448C12.8853 32.0073 13.0864 32.86 13.4887 33.6031C13.9032 34.3463 14.4701 34.9249 15.1894 35.3391C15.9087 35.7654 16.7377 35.9786 17.6765 35.9786C18.6152 35.9786 19.4442 35.7654 20.1635 35.3391C20.8828 34.9249 21.4436 34.3401 21.8459 33.5848C22.2604 32.8417 22.4677 31.9828 22.4677 31.0083C22.4677 30.0459 22.2604 29.1871 21.8459 28.4317C21.4436 27.6886 20.8828 27.1039 20.1635 26.6775C19.4442 26.2633 18.6152 26.0562 17.6765 26.0562C16.7377 26.0562 15.9087 26.2694 15.1894 26.6957C14.4701 27.1221 13.9032 27.7069 13.4887 28.45Z" fill="white"/>
<path fill-rule="evenodd" clip-rule="evenodd" d="M197.243 14.4228C197.271 14.4227 197.299 14.4227 197.328 14.4227C200.7 14.4227 203.672 15.1385 206.244 16.57C208.858 17.9595 210.882 19.8963 212.315 22.3806C213.526 24.419 214.24 26.7125 214.457 29.2612C214.469 29.3995 214.359 29.5174 214.22 29.5174C214.101 29.5174 214.001 29.4302 213.982 29.313C213.671 27.3625 213.01 25.5821 211.998 23.9716C211.205 22.6713 210.23 21.5311 209.072 20.551L201.529 26.6797C201.884 27.0415 202.187 27.4552 202.439 27.9209C202.934 28.8255 203.182 29.854 203.182 31.0065C203.182 32.1736 202.934 33.2021 202.439 34.092C202.186 34.568 201.881 34.9874 201.523 35.3503L210.422 42.5812C209.22 44.0591 207.762 45.2925 206.05 46.2814C203.504 47.709 200.582 48.4227 197.284 48.4227C193.944 48.4227 190.981 47.709 188.392 46.2814C185.846 44.8108 183.843 42.7993 182.381 40.2471C180.92 37.6949 180.19 34.7534 180.19 31.4227C180.19 31.3453 180.19 31.2681 180.191 31.1911C180.19 31.1176 180.19 31.0439 180.19 30.97C180.19 27.728 180.907 24.8648 182.34 22.3806C183.816 19.8963 185.839 17.9595 188.411 16.57C188.793 16.3606 189.183 16.1664 189.581 15.9876C191.855 14.9444 194.381 14.4227 197.159 14.4227C197.187 14.4227 197.215 14.4227 197.243 14.4228ZM193.136 28.45C192.734 29.2053 192.533 30.0702 192.533 31.0448C192.533 32.0073 192.734 32.86 193.136 33.6031C193.551 34.3463 194.118 34.9249 194.837 35.3391C195.556 35.7654 196.385 35.9786 197.324 35.9786C198.263 35.9786 199.092 35.7654 199.811 35.3391C200.53 34.9249 201.091 34.3401 201.493 33.5848C201.908 32.8417 202.115 31.9828 202.115 31.0083C202.115 30.0459 201.908 29.1871 201.493 28.4317C201.091 27.6886 200.53 27.1039 199.811 26.6775C199.092 26.2633 198.263 26.0562 197.324 26.0562C196.385 26.0562 195.556 26.2694 194.837 26.6957C194.118 27.1221 193.551 27.7069 193.136 28.45Z" fill="white"/>
</g>
</svg>
